<svg id="Layer_1" xmlns="http://www.w3.org/2000/svg" viewBox="0 0 71 71"><defs><style>.cls-1{fill:#757371;}</style></defs><path class="cls-1" d="M70.93,33.36c-3.85,5.81-10.44,9.64-17.93,9.64-4.51,0-8.69-1.39-12.14-3.76l-.11,.11c.43,.52,.69,1.18,.69,1.9,0,1.65-1.34,3-3,3h-2.59l-4.4,4.4h18.99c1.66,0,3,1.34,3,3s-1.34,3-3,3H25.45l-6.4,6.4c-.59,.58-1.35,.88-2.12,.88s-1.54-.3-2.12-.88c-1.18-1.17-1.18-3.07,0-4.24l2.16-2.16h-2.48c-1.65,0-3-1.35-3-3s1.35-3,3-3h8.48l4.4-4.4H14.49c-1.65,0-3-1.35-3-3s1.35-3,3-3h18.88l3.06-3.06c-.36-.44-.71-.89-1.03-1.35H14.49c-1.66,0-3-1.34-3-3s1.34-3,3-3h17.97c-.63-2-.96-4.13-.96-6.34,0-9.19,5.77-17.03,13.88-20.1-3.14-.91-6.45-1.4-9.88-1.4C15.89,0,0,15.89,0,35.5s15.89,35.5,35.5,35.5,35.5-15.89,35.5-35.5c0-.72-.02-1.43-.07-2.14ZM8.27,20.44c0-1.66,1.34-3,3-3h13.73c1.66,0,3,1.34,3,3s-1.34,3-3,3H11.27c-1.66,0-3-1.34-3-3Z"/><path class="cls-1" d="M68.5,21.5c0,.28,0,.55-.02,.83-.43,8.16-7.21,14.67-15.48,14.67-3.52,0-6.76-1.18-9.37-3.16h6.81c1.66,0,3-1.34,3-3s-1.34-3-3-3h-11.58c-.87-1.94-1.36-4.08-1.36-6.34,0-8.55,6.95-15.5,15.5-15.5,.88,0,1.74,.07,2.58,.22,7.33,1.23,12.92,7.61,12.92,15.28Z"/></svg>
