<svg width="256" height="256" viewBox="0 0 256 256" fill="none" xmlns="http://www.w3.org/2000/svg">
<path d="M108.566 255.766C168.525 255.766 217.131 207.159 217.131 147.2C217.131 87.2411 168.525 38.6347 108.566 38.6347C48.6064 38.6347 0 87.2411 0 147.2C0 207.159 48.6064 255.766 108.566 255.766Z" fill="#3375BA"/>
<path opacity="0.75" d="M184.08 143.69C218.843 143.69 247.023 115.51 247.023 80.7475C247.023 45.9854 218.843 17.8052 184.08 17.8052C149.318 17.8052 121.138 45.9854 121.138 80.7475C121.138 115.51 149.318 143.69 184.08 143.69Z" fill="white"/>
<path d="M167.918 104.515H49.2072C46.0428 104.515 43.4568 101.929 43.4568 98.7643V93.615C43.4568 90.4506 46.0428 87.8647 49.2072 87.8647H167.918C171.083 87.8647 173.668 90.4506 173.668 93.615V98.7643C173.668 101.929 171.083 104.515 167.918 104.515Z" fill="white"/>
<path d="M167.918 172.38H49.2185C46.0541 172.38 43.4681 169.794 43.4681 166.629V161.48C43.4681 158.315 46.0541 155.729 49.2185 155.729H167.918C171.083 155.729 173.669 158.315 173.669 161.48V166.629C173.669 169.794 171.083 172.38 167.918 172.38Z" fill="white"/>
<path d="M168.939 138.217H90.3105C87.7076 138.217 85.5809 136.091 85.5809 133.488V126.297C85.5809 123.694 87.7076 121.567 90.3105 121.567H168.939C171.542 121.567 173.668 123.694 173.668 126.297V133.488C173.668 136.091 171.542 138.217 168.939 138.217Z" fill="white"/>
<path d="M168.939 206.542H90.3105C87.7076 206.542 85.5809 204.415 85.5809 201.812V194.621C85.5809 192.018 87.7076 189.892 90.3105 189.892H168.939C171.542 189.892 173.668 192.018 173.668 194.621V201.812C173.668 204.415 171.542 206.542 168.939 206.542Z" fill="white"/>
<path fill-rule="evenodd" clip-rule="evenodd" d="M181.994 8C141.12 8 107.987 41.1326 107.987 82.0065C107.987 98.773 113.57 114.242 122.972 126.653C122.951 126.728 122.922 126.818 122.883 126.922C122.606 127.668 122.069 128.492 121.613 128.95L121.608 128.956L52.1842 197.387L52.1777 197.393C51.1025 198.468 50.1611 199.482 49.4872 200.471C48.7988 201.482 48.2488 202.667 48.2488 204.055C48.2488 205.443 48.7988 206.628 49.4872 207.638C50.1611 208.627 51.1025 209.641 52.1777 210.716L53.5841 212.123C54.6783 213.217 55.7312 214.171 56.7814 214.862C57.8512 215.566 59.0632 216.095 60.4463 216.134C63.1677 216.209 65.3868 214.352 67.4462 212.293L67.4488 212.29L136.315 143.226L136.317 143.223C136.485 143.055 136.628 142.909 136.759 142.776C136.982 142.548 137.17 142.355 137.389 142.15C137.708 141.85 137.918 141.697 138.056 141.622C138.065 141.617 138.073 141.613 138.08 141.609C138.117 141.626 138.172 141.654 138.245 141.701C150.501 150.7 165.627 156.013 181.994 156.013C222.867 156.013 256 122.88 256 82.0065C256 41.1326 222.867 8 181.994 8ZM138.019 141.587C138.019 141.587 138.022 141.587 138.028 141.589C138.022 141.588 138.019 141.587 138.019 141.587ZM127.388 82.3694C127.388 51.9418 152.054 27.2757 182.481 27.2757C212.909 27.2757 237.575 51.9418 237.575 82.3694C237.575 112.797 212.909 137.463 182.481 137.463C152.054 137.463 127.388 112.797 127.388 82.3694Z" fill="#454546"/>
</svg>
