<svg width="256" height="256" viewBox="0 0 256 256" fill="none" xmlns="http://www.w3.org/2000/svg">
<path opacity="0.75" fill-rule="evenodd" clip-rule="evenodd" d="M121.478 39.3946C117.243 38.8928 112.935 38.6347 108.566 38.6347C48.6064 38.6347 0 87.2412 0 147.2C0 207.159 48.6064 255.766 108.566 255.766C168.525 255.766 217.131 207.159 217.131 147.2C217.131 147.186 217.131 147.171 217.131 147.156C206.678 152.806 194.71 156.013 181.993 156.013C165.627 156.013 150.501 150.7 138.245 141.701C138.172 141.654 138.117 141.626 138.08 141.609C138.073 141.613 138.065 141.617 138.056 141.622C137.918 141.697 137.708 141.85 137.389 142.15C137.17 142.355 136.982 142.548 136.759 142.776L136.759 142.776C136.628 142.909 136.485 143.055 136.317 143.223L136.315 143.226L123.847 155.729H167.918C171.083 155.729 173.669 158.315 173.669 161.48V166.629C173.669 169.794 171.083 172.38 167.918 172.38H107.245L89.7502 189.925C89.9341 189.903 90.121 189.892 90.3106 189.892H168.939C171.542 189.892 173.669 192.018 173.669 194.621V201.812C173.669 204.415 171.542 206.542 168.939 206.542H90.3106C87.7076 206.542 85.5809 204.415 85.5809 201.812V194.621C85.5809 194.436 85.5917 194.254 85.6125 194.074L67.4488 212.29L67.4462 212.293C65.3868 214.352 63.1677 216.209 60.4463 216.134C59.0632 216.095 57.8512 215.566 56.7814 214.862C55.7312 214.171 54.6783 213.217 53.5841 212.123L52.1777 210.716C51.1025 209.641 50.1611 208.627 49.4872 207.638C48.7988 206.628 48.2488 205.443 48.2488 204.055C48.2488 202.667 48.7988 201.482 49.4872 200.471C50.1611 199.482 51.1025 198.468 52.1777 197.393L52.1842 197.387L77.5539 172.38H49.2185C46.0541 172.38 43.4682 169.794 43.4682 166.629V161.48C43.4682 158.315 46.0541 155.729 49.2185 155.729H94.4454L112.211 138.217H90.3106C87.7076 138.217 85.5809 136.091 85.5809 133.488V126.297C85.5809 123.694 87.7076 121.567 90.3106 121.567H119.443C116.102 116.297 113.409 110.575 111.475 104.515H49.2072C46.0428 104.515 43.4568 101.929 43.4568 98.7643V93.615C43.4568 90.4506 46.0428 87.8647 49.2072 87.8647H108.216C108.064 85.9318 107.987 83.9781 107.987 82.0065C107.987 66.1412 112.979 51.4423 121.478 39.3946ZM132.019 104.515H167.918C171.083 104.515 173.668 101.929 173.668 98.7643V93.615C173.668 90.4506 171.083 87.8647 167.918 87.8647H127.658C127.479 86.0572 127.388 84.224 127.388 82.3694C127.388 51.9419 152.054 27.2757 182.481 27.2757C212.909 27.2757 237.575 51.9419 237.575 82.3694C237.575 112.797 212.909 137.463 182.481 137.463C179.081 137.463 175.754 137.155 172.524 136.566C173.237 135.737 173.669 134.661 173.669 133.488V126.297C173.669 123.694 171.542 121.567 168.939 121.567H143.766C138.848 116.709 134.839 110.932 132.019 104.515ZM138.028 141.589C138.022 141.587 138.019 141.587 138.019 141.587C138.019 141.587 138.02 141.587 138.021 141.588C138.023 141.588 138.025 141.588 138.028 141.589Z" fill="white"/>
</svg>
