<svg width="16" height="16" viewBox="0 0 16 16" fill="none" xmlns="http://www.w3.org/2000/svg">
<path fill-rule="evenodd" clip-rule="evenodd" d="M14.5293 13.8223L13.8223 14.5293L12.2256 12.9326C11.7083 13.3764 11.1239 13.7412 10.4873 14.0049C9.29963 14.4968 7.99227 14.6259 6.73145 14.375C5.47079 14.1241 4.31223 13.5055 3.40332 12.5967C2.49445 11.6877 1.87587 10.5292 1.625 9.26855C1.37424 8.00781 1.5023 6.70035 1.99414 5.5127C2.25788 4.87596 2.62156 4.29011 3.06543 3.77246L1.4707 2.17773L2.17773 1.4707L14.5293 13.8223ZM3.10645 10.5C3.48439 11.2383 4.02446 11.8819 4.68555 12.3828C5.34671 12.8837 6.11268 13.2294 6.92578 13.3936C6.28578 12.5147 5.79298 11.5371 5.4668 10.5H3.10645ZM10.3408 11.0479C10.0245 11.8816 9.60015 12.6713 9.07422 13.3936C9.88714 13.2295 10.6524 12.8835 11.3135 12.3828C11.382 12.3309 11.4478 12.2756 11.5137 12.2207L10.3408 11.0479ZM6.52148 10.5C6.8602 11.4589 7.36069 12.3527 8 13.1436C8.63926 12.3528 9.13887 11.4588 9.47754 10.5H6.52148ZM2.71289 6.5C2.57259 6.98766 2.50101 7.49257 2.5 8C2.50101 8.50743 2.57259 9.01234 2.71289 9.5H5.20605C5.07048 8.84193 5.00142 8.17187 5 7.5C5 7.16407 5.02269 6.83104 5.05469 6.5H2.71289ZM6.04883 6.75586C6.0232 7.00323 6.00498 7.25131 6 7.5C6.00274 8.1733 6.08034 8.84416 6.23242 9.5H8.79297L6.04883 6.75586ZM3.7793 4.48633C3.52017 4.79635 3.29298 5.13535 3.10547 5.5H4.79297L3.7793 4.48633Z" fill="#C5C5C5"/>
<path fill-rule="evenodd" clip-rule="evenodd" d="M8 1.5C9.28546 1.50003 10.5425 1.88155 11.6113 2.5957C12.6801 3.30991 13.5129 4.3251 14.0049 5.5127C14.3969 6.45906 14.558 7.48101 14.4805 8.49512C14.4012 9.53259 14.0709 10.5353 13.5215 11.4219L12.7881 10.6885C12.8233 10.6259 12.8598 10.564 12.8926 10.5H12.5996L11.5996 9.5H13.2871C13.3816 9.17142 13.445 8.83481 13.4766 8.49512C13.4919 8.33073 13.4997 8.16548 13.5 8C13.499 7.49258 13.4274 6.98765 13.2871 6.5H10.9453C10.9773 6.83104 11 7.16408 11 7.5C10.9997 7.62598 10.9972 7.75219 10.9922 7.87793C10.9919 7.88625 10.9916 7.89403 10.9912 7.90234C10.9836 8.08245 10.9704 8.26314 10.9531 8.44238C10.9413 8.56447 10.9235 8.68605 10.9072 8.80762L9.9873 7.8877C9.99339 7.75858 9.99948 7.6294 10 7.5C9.99331 7.16553 9.96778 6.83167 9.92383 6.5H8.59961L7.59961 5.5H9.74902C9.66073 5.10353 9.54676 4.71349 9.40625 4.33398C9.17151 3.70165 8.86549 3.09649 8.49414 2.53027C8.33025 2.51624 8.16588 2.50001 8 2.5C7.89564 2.50001 7.79174 2.50648 7.68848 2.51465C7.62766 2.51941 7.56658 2.52503 7.50586 2.53027L7.5 2.53906C7.10825 3.13805 6.79097 3.78104 6.55273 4.45312L5.76953 3.66992C5.8901 3.38059 6.0242 3.09663 6.17188 2.81934C5.87225 2.92574 5.58416 3.05695 5.31055 3.21094L4.5752 2.47559C5.60241 1.83879 6.78851 1.50003 8 1.5ZM9.84082 2.82324C10.2842 3.66307 10.6059 4.56471 10.7939 5.5H12.8936C12.2522 4.2529 11.1608 3.29575 9.84082 2.82324Z" fill="#C5C5C5"/>
</svg>
