<svg width="16" height="16" viewBox="0 0 16 16" fill="none" xmlns="http://www.w3.org/2000/svg">
<path fill-rule="evenodd" clip-rule="evenodd" d="M8 1.5C9.28557 1.5 10.5423 1.88123 11.6112 2.59546C12.6801 3.30969 13.5132 4.32483 14.0052 5.51257C14.3972 6.45898 14.5586 7.48108 14.4811 8.49524C14.3962 9.60645 14.0267 10.6801 13.4046 11.6112C12.6903 12.6802 11.6752 13.5133 10.4874 14.0052C9.29973 14.4972 7.9928 14.626 6.73192 14.3751C5.47104 14.1243 4.31285 13.5052 3.40381 12.5962C2.49476 11.6871 1.8757 10.5289 1.62489 9.26807C1.3741 8.0072 1.50282 6.70032 1.99478 5.51257C2.48675 4.32483 3.31987 3.30969 4.38879 2.59546C5.45772 1.88123 6.71443 1.5 8 1.5ZM12.894 5.5C12.2527 4.25281 11.1613 3.29626 9.84118 2.82373C10.2845 3.66357 10.606 4.5647 10.794 5.5H12.894ZM13.4765 8.49524C13.4918 8.33081 13.4997 8.16553 13.5 8C13.499 7.49255 13.4273 6.98767 13.287 6.5H10.945C10.977 6.83105 11 7.16406 11 7.5C10.9997 7.62598 10.9971 7.75195 10.9921 7.87769C10.9917 7.88623 10.9914 7.89417 10.9911 7.90271C10.9834 8.08289 10.9709 8.26331 10.9536 8.44263C10.9193 8.79749 10.866 9.15039 10.794 9.5H13.287C13.3815 9.17139 13.4449 8.83496 13.4765 8.49524ZM9.94081 8.49524C9.94278 8.47815 9.9447 8.46106 9.94658 8.44397C9.98085 8.13074 9.99872 7.81567 10 7.5C9.99331 7.16553 9.96794 6.83167 9.92399 6.5H6.076C6.03207 6.83167 6.0067 7.16553 6 7.5C6.00274 8.17334 6.0809 8.84412 6.233 9.5H9.767C9.8439 9.16833 9.9019 8.83289 9.94081 8.49524ZM9.74899 5.5C9.6607 5.10352 9.54648 4.71399 9.40597 4.33447C9.17117 3.7019 8.86551 3.09644 8.494 2.53003C8.33 2.51599 8.166 2.5 8 2.5C7.89551 2.5 7.79182 2.50635 7.68843 2.51453C7.62755 2.51929 7.56677 2.52478 7.50599 2.53003L7.5 2.53918C6.90887 3.44299 6.48573 4.4458 6.25101 5.5H9.74899ZM5.20601 5.5C5.39779 4.5647 5.72313 3.66174 6.172 2.81897C4.84599 3.28979 3.74946 4.24866 3.106 5.5H5.20601ZM2.713 6.5C2.57269 6.98767 2.50101 7.49255 2.5 8C2.50101 8.50745 2.57269 9.01233 2.713 9.5H5.20601C5.07043 8.84192 5.00142 8.17188 5 7.5C5 7.16406 5.02301 6.83105 5.05501 6.5H2.713ZM5.46701 10.5H3.10701C3.48501 11.2384 4.02472 11.882 4.68594 12.3829C5.34715 12.8838 6.11285 13.229 6.92601 13.3931C6.28598 12.5142 5.7932 11.5371 5.46701 10.5ZM8 13.144C8.63943 12.3531 9.13927 11.459 9.47799 10.5H6.522C6.86075 11.459 7.36058 12.3531 8 13.144ZM10.533 10.5C10.2068 11.5371 9.71403 12.5142 9.074 13.3931C9.88716 13.229 10.6528 12.8838 11.314 12.3829C11.9753 11.882 12.515 11.2384 12.893 10.5H10.533Z" fill="#C5C5C5"/>
</svg>
