<svg width="256" height="256" viewBox="0 0 256 256" fill="none" xmlns="http://www.w3.org/2000/svg">
<path d="M184.253 3.95712C144.681 3.95712 112.455 36.1319 112.455 75.7555C112.455 91.5326 117.473 106.534 126.99 119.052C126.835 119.621 126.266 120.655 125.697 121.276L58.3475 187.643C53.2781 192.712 53.2781 195.506 58.3475 200.575L59.6924 201.92C62.0719 204.3 63.9858 205.748 66.3653 205.8C66.417 205.8 66.4688 205.8 66.5205 205.8C68.9 205.8 70.9174 204.3 73.1417 202.075L139.922 135.088C140.026 134.984 140.181 134.829 140.285 134.725C140.647 134.312 141.319 133.691 141.629 133.536C141.681 133.536 141.733 133.587 141.785 133.639C154.148 142.743 168.838 147.502 184.202 147.502C223.774 147.502 256 115.327 256 75.7038C256 36.0802 223.877 3.95712 184.253 3.95712ZM238.206 76.1176C238.206 105.603 214.256 129.553 184.771 129.553C155.286 129.553 131.336 105.603 131.336 76.1176C131.336 46.6327 155.286 22.6826 184.771 22.6826C214.256 22.6826 238.206 46.6327 238.206 76.1176Z" fill="#75797D"/>
<path d="M100.567 196.54H171.632C174.115 196.54 176.184 194.471 176.184 191.937V184.953C176.184 182.419 174.115 180.349 171.58 180.349H116.708L100.567 196.54Z" fill="#75797D"/>
<path d="M133.623 163.383H170.597C171.779 163.383 172.871 163.023 173.773 162.405C163.288 161.165 153.168 158.052 143.818 153.156L133.623 163.383Z" fill="#75797D"/>
<path d="M77.293 147.192H55.5025C52.3988 147.192 49.9159 149.726 49.9159 152.778V157.796C49.9159 160.9 52.4505 163.383 55.5025 163.383H60.8624L77.293 147.192Z" fill="#75797D"/>
<path d="M105.769 114.086L95.333 114.086C92.7984 114.086 90.7292 116.155 90.7292 118.69V125.673C90.7292 127.934 92.3755 129.824 94.53 130.206L107.499 117.427C106.897 116.324 106.32 115.21 105.769 114.086Z" fill="#75797D"/>
<path d="M97.1176 81.3939L55.5025 81.3939C52.3988 81.3939 49.9158 83.9285 49.9158 86.9805V91.9981C49.9158 95.1018 52.4505 97.5847 55.5025 97.5847H99.6776C98.3245 92.3129 97.466 86.8977 97.1176 81.3939Z" fill="#75797D"/>
<path d="M208.451 159.595C198.986 203.569 159.88 236.528 113.076 236.528C59.1945 236.528 15.5152 192.848 15.5152 138.967C15.5152 88.2191 54.2624 46.5209 103.786 41.8431C106.172 36.1993 109.135 30.8578 112.6 25.8924C50.3687 26.1489 0 76.6759 0 138.967C0 201.417 50.6257 252.043 113.076 252.043C170.87 252.043 218.537 208.685 225.323 152.722C220.003 155.572 214.355 157.887 208.451 159.595Z" fill="#75797D"/>
</svg>
