<svg width="256" height="256" viewBox="0 0 256 256" fill="none" xmlns="http://www.w3.org/2000/svg">
<path d="M182.011 4C141.203 4 107.969 37.1802 107.969 78.0421C107.969 94.3122 113.144 109.782 122.959 122.691C122.799 123.278 122.212 124.345 121.625 124.985L52.1708 193.426C46.9431 198.654 46.9431 201.535 52.1708 206.762L53.5578 208.149C56.0116 210.603 57.9854 212.097 60.4392 212.15C60.4926 212.15 60.5459 212.15 60.5993 212.15C63.0531 212.15 65.1335 210.603 67.4274 208.309L136.295 139.228C136.402 139.122 136.562 138.961 136.668 138.855C137.042 138.428 137.735 137.788 138.055 137.628C138.109 137.628 138.162 137.681 138.215 137.735C150.965 147.123 166.115 152.031 181.958 152.031C222.766 152.031 256 118.851 256 77.9888C256 37.1269 222.873 4 182.011 4ZM237.65 78.4155C237.65 108.822 212.951 133.52 182.545 133.52C152.138 133.52 127.44 108.822 127.44 78.4155C127.44 48.0092 152.138 23.3107 182.545 23.3107C212.951 23.3107 237.65 48.0092 237.65 78.4155Z" fill="#C6C6C6"/>
<path fill-rule="evenodd" clip-rule="evenodd" d="M100.389 120.641L87.501 133.341C86.328 132.475 85.5645 131.083 85.5645 129.519V122.318C85.5645 119.704 87.6983 117.57 90.3122 117.57H98.8522C99.3447 118.602 99.8571 119.626 100.389 120.641Z" fill="#C6C6C6"/>
<path fill-rule="evenodd" clip-rule="evenodd" d="M92.7292 100.554C91.3652 95.1121 90.5 89.5285 90.1486 83.8567H49.2369C46.0363 83.8567 43.4757 86.4706 43.4757 89.6179V94.7923C43.4757 97.993 46.0896 100.554 49.2369 100.554H92.7292Z" fill="#C6C6C6"/>
<path fill-rule="evenodd" clip-rule="evenodd" d="M140.698 160.307L132.622 168.408H164.608C156.304 166.831 148.27 164.117 140.698 160.307ZM51.9148 168.408L68.8589 151.711H49.237C46.0363 151.711 43.4758 154.325 43.4758 157.472V162.646C43.4758 165.847 46.0896 168.408 49.237 168.408H51.9148Z" fill="#C6C6C6"/>
<path fill-rule="evenodd" clip-rule="evenodd" d="M115.179 185.905L98.5342 202.601H168.995C171.556 202.601 173.69 200.468 173.69 197.854V190.652C173.69 188.038 171.556 185.905 168.942 185.905H115.179Z" fill="#C6C6C6"/>
<path fill-rule="evenodd" clip-rule="evenodd" d="M30.511 196.645C20.0942 181.444 14 163.048 14 143.229C14 95.7951 48.9075 56.5143 94.4348 49.6744C96.1007 44.5383 98.2064 39.5997 100.707 34.9027C44.413 38.9504 0 85.9031 0 143.229C0 203.212 48.626 251.838 108.609 251.838C161.56 251.838 205.66 213.946 215.273 163.799C210.329 165.724 205.179 167.233 199.865 168.284C188.883 208.376 152.187 237.838 108.609 237.838C94.2052 237.838 80.5529 234.619 68.3326 228.862C66.0415 229.645 63.4593 230.15 60.5993 230.15H60.2436L60.048 230.146C49.8747 229.925 43.3857 223.434 40.8929 220.94L40.8298 220.877L39.4429 219.49C36.6622 216.71 30.25 210.05 30.25 200.094C30.25 198.896 30.3428 197.746 30.511 196.645Z" fill="#C6C6C6"/>
</svg>
